<svg width="400" height="400" viewBox="0 0 100 100" xmlns="http://www.w3.org/2000/svg">
  <!-- Лепестки -->
  <circle cx="50" cy="45" r="12" fill="#F7C8D4" opacity="0.9"/>
  <circle cx="40" cy="38" r="11" fill="#F5B8C8"/>
  <circle cx="60" cy="38" r="11" fill="#F5B8C8"/>
  <circle cx="35" cy="48" r="10" fill="#F2A6BA"/>
  <circle cx="65" cy="48" r="10" fill="#F2A6BA"/>
  <circle cx="45" cy="32" r="9" fill="#FAD1DC"/>
  <circle cx="55" cy="32" r="9" fill="#FAD1DC"/>
  <circle cx="42" cy="55" r="9" fill="#EE9AB2"/>
  <circle cx="58" cy="55" r="9" fill="#EE9AB2"/>
  <circle cx="50" cy="50" r="8" fill="#FFE4E9"/>
  <!-- Серединка -->
  <circle cx="50" cy="45" r="5" fill="#F5A3B8"/>
  <circle cx="48" cy="43" r="2" fill="#FFD700"/>
  <circle cx="52" cy="44" r="1.5" fill="#FFD700"/>
  <!-- Стебель -->
  <rect x="48" y="55" width="4" height="35" fill="#6B8E5E" rx="2"/>
  <!-- Лист -->
  <path d="M48 70 Q30 65 25 75 Q35 78 48 72" fill="#7BA868"/>
  <path d="M52 75 Q70 70 75 80 Q65 83 52 77" fill="#6B9A5A"/>
</svg>